<?xml version="1.0" encoding="UTF-8"?>
<svg width="236px" height="137px" viewBox="0 0 236 137" version="1.1" xmlns="http://www.w3.org/2000/svg" xmlns:xlink="http://www.w3.org/1999/xlink">
    <!-- Generator: Sketch 42 (36781) - http://www.bohemiancoding.com/sketch -->
    <title>SJF_logo_Lubalin</title>
    <desc>Created with Sketch.</desc>
    <defs>
        <polygon id="path-1" points="0.06 0.796 0.06 103.94 58.204 103.94 58.204 0.796 0.06 0.796"></polygon>
    </defs>
    <g id="Page-1" stroke="none" stroke-width="1" fill="none" fill-rule="evenodd">
        <g id="SJF_logo_Lubalin">
            <g id="Group-6" transform="translate(35.000000, 0.000000)" fill="#1A1918">
                <path d="M9.039,5.343 C8.812,3.304 7.328,2.147 5.465,2.147 C3.654,2.147 2.018,3.405 2.018,5.292 C2.018,6.249 2.421,7.205 3.201,7.783 C4.006,8.387 5.214,8.614 6.195,8.84 C7.503,9.142 8.736,9.444 9.794,10.35 C10.9,11.255 11.479,12.589 11.479,13.999 C11.479,15.231 11.252,16.238 10.447,17.244 C9.315,18.678 7.881,19.358 5.969,19.358 C4.308,19.358 2.823,18.653 1.893,17.244 L1.893,19.005 L0.383,19.005 L0.383,14.174 L1.893,14.174 C2.119,16.313 3.654,17.722 5.893,17.722 C7.931,17.722 9.667,16.263 9.667,14.174 C9.667,11.557 7.629,10.954 5.491,10.425 C4.258,10.098 3.126,9.872 2.069,9.092 C0.836,8.186 0.207,6.852 0.207,5.343 C0.207,4.059 0.634,3.179 1.138,2.499 C2.094,1.191 3.805,0.562 5.491,0.562 C6.9,0.562 8.435,1.191 9.039,2.499 L9.039,1.04 L10.548,1.04 L10.548,5.343 L9.039,5.343" id="Fill-1"></path>
                <polyline id="Fill-3" points="24.451 17.344 26.741 17.344 26.741 19.005 20.35 19.005 20.35 17.344 22.64 17.344 22.64 2.701 18.74 2.701 18.74 5.846 17.18 5.846 17.18 1.04 29.911 1.04 29.911 5.846 28.352 5.846 28.352 2.701 24.451 2.701 24.451 17.344"></polyline>
                <path d="M52.591,9.922 C52.591,5.795 49.194,2.374 44.992,2.374 C40.765,2.374 37.318,5.745 37.318,9.922 C37.318,14.149 40.715,17.546 44.967,17.546 L44.967,17.571 C49.194,17.546 52.591,14.124 52.591,9.922 Z M35.506,9.972 C35.506,4.739 39.733,0.562 44.992,0.562 C50.15,0.562 54.403,4.739 54.403,9.847 C54.403,15.081 50.251,19.358 44.992,19.358 C39.759,19.358 35.506,15.181 35.506,9.972 L35.506,9.972 Z" id="Fill-4"></path>
                <path d="M76.23,5.418 C74.897,3.405 72.431,2.374 70.041,2.374 C65.839,2.374 62.467,5.669 62.467,9.872 C62.467,14.023 65.713,17.546 69.99,17.546 C72.506,17.546 74.821,16.364 76.281,14.3 L78.294,14.3 C76.784,17.42 73.488,19.358 70.041,19.358 C67.575,19.358 65.134,18.326 63.398,16.615 C61.561,14.803 60.655,12.413 60.655,9.872 C60.655,7.305 61.712,4.99 63.474,3.153 C65.059,1.518 67.449,0.562 70.016,0.562 C72.431,0.562 74.67,1.417 76.23,3.153 L76.23,1.04 L77.891,1.04 L77.891,5.418 L76.23,5.418" id="Fill-5"></path>
            </g>
            <polyline id="Fill-7" fill="#1A1918" points="135.56 19.005 128.968 19.005 128.968 17.344 131.056 17.344 123.256 9.947 123.256 17.344 125.546 17.344 125.546 19.005 119.155 19.005 119.155 17.344 121.444 17.344 121.444 2.701 119.155 2.701 119.155 1.04 125.546 1.04 125.546 2.701 123.256 2.701 123.256 9.369 130.654 2.701 128.641 2.701 128.641 1.04 135.132 1.04 135.132 2.701 132.968 2.701 125.244 9.62 133.446 17.344 135.56 17.344 135.56 19.005"></polyline>
            <g id="Group-11" transform="translate(141.000000, 0.000000)" fill="#1A1918">
                <polyline id="Fill-8" points="13.747 2.701 11.457 2.701 11.457 1.04 17.849 1.04 17.849 2.701 15.559 2.701 15.559 17.344 17.849 17.344 17.849 19.005 11.457 19.005 11.457 17.344 13.747 17.344 13.747 10.626 4.814 10.626 4.814 17.344 7.129 17.344 7.129 19.005 0.713 19.005 0.713 17.344 3.003 17.344 3.003 2.701 0.713 2.701 0.713 1.04 7.129 1.04 7.129 2.701 4.814 2.701 4.814 9.217 13.747 9.217 13.747 2.701"></polyline>
                <path d="M40.451,9.922 C40.451,5.795 37.055,2.374 32.853,2.374 C28.625,2.374 25.178,5.745 25.178,9.922 C25.178,14.149 28.575,17.546 32.828,17.546 L32.828,17.571 C37.055,17.546 40.451,14.124 40.451,9.922 Z M23.367,9.972 C23.367,4.739 27.594,0.562 32.853,0.562 C38.011,0.562 42.264,4.739 42.264,9.847 C42.264,15.081 38.111,19.358 32.853,19.358 C27.619,19.358 23.367,15.181 23.367,9.972 L23.367,9.972 Z" id="Fill-10"></path>
            </g>
            <polyline id="Fill-12" fill="#1A1918" points="200.743 14.376 200.743 19.005 188.943 19.005 188.943 17.344 191.232 17.344 191.232 2.701 188.943 2.701 188.943 1.04 195.334 1.04 195.334 2.701 193.044 2.701 193.044 17.344 198.932 17.344 198.932 14.376 200.743 14.376"></polyline>
            <polyline id="Fill-13" fill="#1A1918" points="210.96 17.344 213.325 17.344 213.325 19.005 206.859 19.005 206.859 17.344 209.148 17.344 209.148 2.701 206.859 2.701 206.859 1.04 211.892 1.04 218.408 16.288 225.554 1.04 230.536 1.04 230.536 2.701 228.222 2.701 228.222 17.344 230.536 17.344 230.536 19.005 224.095 19.005 224.095 17.344 226.409 17.344 226.409 3.355 219.063 19.005 217.653 19.005 210.96 3.405 210.96 17.344"></polyline>
            <g id="Group-17" transform="translate(0.000000, 33.000000)">
                <mask id="mask-2" fill="white">
                    <use xlink:href="#path-1"></use>
                </mask>
                <g id="Clip-15"></g>
                <path d="M58.204,75.296 C58.204,95.296 35.029,102.296 35.029,102.296 L35.029,0.796 L58.204,0.796 L58.204,75.296" id="Fill-14" fill="#1A1918" mask="url(#mask-2)"></path>
                <path d="M33.204,87.398 C33.204,96.566 25.771,104 16.602,104 C7.433,104 0,96.566 0,87.398 C0,78.229 7.433,70.796 16.602,70.796 C25.771,70.796 33.204,78.229 33.204,87.398" id="Fill-16" fill="#1A1918" mask="url(#mask-2)"></path>
            </g>
            <path d="M115.204,60.796 C115.204,40.796 92.029,33.796 92.029,33.796 L92.029,86.296 L115.204,86.296 L115.204,60.796" id="Fill-18" fill="#1A1918"></path>
            <path d="M90.204,72.546 C90.204,80.14 84.048,86.296 76.454,86.296 C68.86,86.296 62.704,80.14 62.704,72.546 C62.704,64.952 68.86,58.796 76.454,58.796 C84.048,58.796 90.204,64.952 90.204,72.546" id="Fill-19" fill="#1A1918"></path>
            <path d="M135.642,37.794 C135.642,41.942 132.279,45.305 128.131,45.305 C123.982,45.305 120.62,41.942 120.62,37.794 C120.62,33.646 123.982,30.282 128.131,30.282 C132.279,30.282 135.642,33.646 135.642,37.794" id="Fill-20" fill="#1A1918"></path>
            <polyline id="Fill-21" fill="#1A1918" points="77.949 117.433 80.264 117.433 80.264 119.094 73.848 119.094 73.848 117.433 76.137 117.433 76.137 102.79 73.848 102.79 73.848 101.128 86.529 101.128 86.529 105.809 84.717 105.809 84.717 102.79 77.949 102.79 77.949 109.332 84.793 109.332 84.793 110.816 77.949 110.816 77.949 117.433"></polyline>
            <polyline id="Fill-22" fill="#1A1918" points="106.96 114.464 106.96 119.094 94.304 119.094 94.304 117.433 96.593 117.433 96.593 102.79 94.304 102.79 94.304 101.128 106.96 101.128 106.96 105.758 105.148 105.758 105.148 102.79 98.405 102.79 98.405 109.281 105.35 109.281 105.35 110.766 98.405 110.766 98.405 117.433 105.148 117.433 105.148 114.464 106.96 114.464"></polyline>
            <path d="M124.208,105.431 C123.981,103.393 122.497,102.236 120.635,102.236 C118.823,102.236 117.188,103.494 117.188,105.381 C117.188,106.337 117.59,107.293 118.37,107.873 C119.175,108.476 120.383,108.703 121.365,108.929 C122.673,109.231 123.906,109.533 124.963,110.439 C126.07,111.344 126.648,112.678 126.648,114.087 C126.648,115.32 126.422,116.327 125.617,117.332 C124.485,118.767 123.05,119.447 121.138,119.447 C119.478,119.447 117.993,118.742 117.062,117.332 L117.062,119.094 L115.552,119.094 L115.552,114.263 L117.062,114.263 C117.289,116.402 118.823,117.811 121.063,117.811 C123.101,117.811 124.837,116.352 124.837,114.263 C124.837,111.646 122.799,111.042 120.66,110.514 C119.427,110.187 118.295,109.96 117.238,109.18 C116.005,108.275 115.376,106.941 115.376,105.431 C115.376,104.148 115.804,103.267 116.307,102.588 C117.263,101.28 118.974,100.651 120.66,100.651 C122.069,100.651 123.604,101.28 124.208,102.588 L124.208,101.128 L125.718,101.128 L125.718,105.431 L124.208,105.431" id="Fill-23" fill="#1A1918"></path>
            <polyline id="Fill-24" fill="#1A1918" points="141.156 117.433 143.447 117.433 143.447 119.094 137.056 119.094 137.056 117.433 139.346 117.433 139.346 102.79 135.445 102.79 135.445 105.935 133.885 105.935 133.885 101.128 146.617 101.128 146.617 105.935 145.057 105.935 145.057 102.79 141.156 102.79 141.156 117.433"></polyline>
            <polyline id="Fill-25" fill="#1A1918" points="158.246 117.433 160.535 117.433 160.535 119.094 154.145 119.094 154.145 117.433 156.434 117.433 156.434 102.79 154.145 102.79 154.145 101.128 160.535 101.128 160.535 102.79 158.246 102.79 158.246 117.433"></polyline>
            <polyline id="Fill-26" fill="#1A1918" points="178.57 119.094 176.658 119.094 170.217 102.79 167.953 102.79 167.953 101.128 174.369 101.128 174.369 102.79 172.129 102.79 177.665 116.578 183.301 102.79 181.012 102.79 181.012 101.128 187.327 101.128 187.327 102.79 185.163 102.79 178.57 119.094"></polyline>
            <path d="M201.485,103.166 L197.812,111.823 L205.083,111.823 L201.485,103.166 Z M205.059,119.094 L205.059,117.433 L207.398,117.433 L205.611,113.307 L197.283,113.307 L195.446,117.433 L197.711,117.433 L197.711,119.094 L191.295,119.094 L191.295,117.433 L193.534,117.433 L200.051,102.79 L197.661,102.79 L197.661,101.128 L202.366,101.128 L209.411,117.433 L211.65,117.433 L211.65,119.094 L205.059,119.094 L205.059,119.094 Z" id="Fill-27" fill="#1A1918"></path>
            <polyline id="Fill-28" fill="#1A1918" points="230.906 114.464 230.906 119.094 219.105 119.094 219.105 117.433 221.396 117.433 221.396 102.79 219.105 102.79 219.105 101.128 225.497 101.128 225.497 102.79 223.207 102.79 223.207 117.433 229.095 117.433 229.095 114.464 230.906 114.464"></polyline>
            <polyline id="Fill-29" fill="#1A1918" points="185.767 86.309 230.434 86.309 230.434 66.805 205.601 66.805 185.767 86.309"></polyline>
            <path d="M184.183,51.322 C170.041,65.464 181.478,86.801 181.478,86.801 L235.434,33.291 L202.214,33.291 C202.214,33.291 198.325,37.18 184.183,51.322" id="Fill-30" fill="#1A1918"></path>
            <polyline id="Fill-31" fill="#1A1918" points="129.767 86.309 172.434 86.309 172.434 66.805 149.601 66.805 129.767 86.309"></polyline>
            <path d="M128.183,51.322 C114.041,65.464 125.478,86.801 125.478,86.801 L179.434,33.291 L146.214,33.291 C146.214,33.291 142.325,37.18 128.183,51.322" id="Fill-32" fill="#1A1918"></path>
        </g>
    </g>
</svg>